PathFileType	4	(X/Y/Z)	C:\Users\WrightLab\Desktop\Jo\P5V27.trc
DataRate	CameraRate	NumFrames	NumMarkers	Units	OrigDataRate	OrigDataStartFrame	OrigNumFrames
100.00	100.00	       12	19	mm	100.00	717	       819
Frame#	Time	Headset_Front			Headset_Back			Headset_Left			Headset_Right			Left_Shoulder			Right_Shoulder			Sternum			C7			Left Elbow			Right Elbow			Left Wrist			Right Wrist			Left ASIS			Right ASIS			S2			Left Knee			Right Knee			Left Ankle			Right Ankle			
		X1	Y1	Z1	X2	Y2	Z2	X3	Y3	Z3	X4	Y4	Z4	X5	Y5	Z5	X6	Y6	Z6	X7	Y7	Z7	X8	Y8	Z8	X9	Y9	Z9	X10	Y10	Z10	X11	Y11	Z11	X12	Y12	Z12	X13	Y13	Z13	X14	Y14	Z14	X15	Y15	Z15	X16	Y16	Z16	X17	Y17	Z17	X18	Y18	Z18	X19	Y19	Z19	

717	7.160	-292.29233	1718.03247	-644.30334							-386.47116	1661.27637	-436.22217	-96.07521	1500.65906	-619.16400	-451.06241	1444.97595	-493.99570	-265.61465	1300.37976	-511.73532	-333.70728	1519.98926	-684.19055	-33.49230	1229.65796	-554.04907	-472.21817	1177.57947	-411.47812	-210.19971	1162.10364	-415.15912	-292.05368	1056.74426	-300.03717	-110.70753	922.42310	-546.06390	-403.98962	929.66724	-473.98245	-286.69501	976.89404	-779.76593	-68.10645	508.33585	-502.54956	-468.80734	491.50104	-559.09973	-46.83082	99.44321	-452.06247	-418.57343	83.20174	-653.64655	
718	7.170	-172.87610	1673.68738	-527.39642							-387.67798	1662.29810	-440.20303	-97.35140	1501.42773	-623.72131	-452.07019	1445.88196	-497.71478	-266.63651	1301.14294	-515.22211	-335.34412	1520.38330	-688.47345				-473.07535	1178.03687	-416.55835	-211.02649	1161.05237	-419.31686	-292.32242	1056.21289	-305.64047	-113.30067	923.42987	-553.13574	-405.03394	930.54498	-478.13507	-289.35883	977.44397	-783.79706	-68.05886	508.58084	-506.45966	-470.85330	493.31598	-562.99646	-47.60405	99.88789	-462.06332	-418.69742	82.79488	-654.45416	
719	7.180	-295.56024	1718.11304	-654.93311							-388.86124	1663.86340	-446.10779	-98.75373	1502.25403	-629.71088	-453.46976	1447.32361	-501.40668	-268.30054	1301.33691	-520.62250	-337.06485	1521.33423	-692.69647	-36.82804	1230.06580	-565.99341	-473.91235	1178.72888	-420.64145	-211.98294	1162.53735	-425.77362	-293.62097	1055.61572	-310.71640	-116.88884	923.56268	-559.50061	-406.97736	932.64716	-481.55908	-291.69553	978.22571	-788.36462	-67.71057	510.62680	-510.42294	-472.32324	494.67661	-566.63000	-48.12336	100.49271	-473.30423	-418.92813	82.29187	-655.11902	
720	7.190	-175.29332	1675.81750	-537.55774							-389.85217	1664.86816	-450.62885	-99.63797	1502.31909	-634.05060	-453.81976	1447.32397	-504.31332	-268.89551	1301.65491	-524.27930	-338.54816	1521.83191	-697.36298	-38.66870	1231.26892	-570.36499	-475.07404	1179.17700	-424.12332	-212.12891	1161.36780	-430.50818	-294.19998	1055.11487	-315.85583	-119.60344	924.05157	-565.79846	-406.76566	932.36530	-485.88232	-294.53671	978.56714	-792.66071	-67.16238	512.17719	-514.89807	-473.22241	495.82709	-568.45245	-48.72004	101.26727	-484.32486	-418.95294	82.26642	-655.11877	
721	7.200	-176.41083	1676.49292	-543.93311							-390.81870	1665.92883	-455.60956	-100.72241	1502.78857	-639.08856	-454.51721	1447.89917	-508.10992	-270.01675	1302.47791	-528.35321	-339.81842	1521.99988	-701.00598	-40.51445	1231.28516	-576.32764	-476.66379	1179.12756	-428.74646	-213.10464	1161.24939	-434.91119	-295.03366	1053.86072	-320.43701	-121.78920	925.19653	-572.21130	-408.80533	933.31525	-484.85315	-297.06110	978.86334	-797.05310	-67.44876	513.71393	-520.01965	-473.20932	495.67819	-571.37268	-48.18580	100.78338	-496.77246	-418.97290	82.22403	-655.11292	
722	7.210	-177.41470	1677.00146	-549.27679										-101.79770	1503.44324	-645.11981	-454.72260	1448.49329	-511.76422	-270.32367	1303.05798	-533.48529	-341.23627	1522.33167	-705.62830	-39.79124	1231.68323	-580.43140	-478.63135	1179.63000	-432.82031	-213.59590	1160.25537	-440.43109	-295.58658	1053.82935	-325.07681	-123.97086	924.75989	-578.11725	-409.40588	933.99353	-486.10059	-299.59549	979.00366	-801.02844	-67.52749	514.07697	-524.84363	-472.81644	496.36041	-575.07239	-48.56324	102.07067	-509.86011	-419.23077	81.91338	-655.24371	
723	7.220	-178.32727	1677.53503	-555.11060	-392.52686	1667.42566	-466.40964							-103.24904	1503.19299	-648.68359	-456.25797	1449.87671	-516.23114	-271.26666	1303.20947	-537.63391	-342.59256	1522.67029	-709.98602	-40.95894	1231.24121	-586.00916	-479.38840	1179.58826	-436.00354	-214.36688	1160.01099	-444.14972	-295.35477	1053.86951	-330.46375	-125.80133	925.83136	-584.63696	-409.86880	933.59485	-490.06497	-301.65689	979.59631	-805.03918	-68.26666	514.00494	-530.23694	-471.72897	496.35519	-578.21478	-49.53075	102.06535	-524.32587	-419.76196	81.75886	-655.55396	
724	7.230	-179.10841	1677.65039	-560.45770	-393.20770	1668.30383	-471.66360							-104.66440	1503.21570	-654.19916	-456.75928	1449.66321	-519.21014	-271.92865	1303.82275	-542.56165	-343.90671	1522.55676	-713.86627	-41.25034	1231.70313	-590.11737	-480.47208	1180.09509	-440.06119	-217.87830	1163.17322	-453.71304	-296.39926	1053.83630	-335.69333	-127.20845	926.20020	-589.54541	-410.60211	933.79510	-493.63358	-304.08176	979.26416	-808.72821	-68.53793	515.73175	-533.67505	-470.91110	494.48254	-581.61871	-50.37533	102.49749	-539.74286	-419.97153	81.28059	-656.21985	
725	7.240	-179.82300	1678.07056	-565.44623	-393.81879	1668.98975	-476.71045							-105.32124	1502.99194	-659.04327	-456.91943	1449.54883	-523.11877	-272.27774	1303.58533	-547.36316	-345.23877	1522.52637	-719.10223	-42.94154	1230.91064	-596.69537	-481.38016	1180.09204	-443.21341	-214.96265	1159.73120	-454.84729	-296.23239	1053.57813	-340.07053	-127.93170	926.55676	-594.01385	-410.99493	934.52832	-496.90439	-305.39548	979.05878	-812.43640	-69.32536	515.89886	-538.35071	-470.74307	493.71701	-584.99152	-50.83737	103.86276	-553.90448	-419.96463	81.26527	-656.21423	
726	7.250	-180.32912	1677.61719	-571.11523	-394.36481	1669.49231	-481.80563							-106.20731	1502.90930	-663.64734	-456.88760	1449.76038	-527.18677	-272.77649	1304.23486	-549.68604	-346.22717	1522.32141	-722.74536	-41.95945	1231.07397	-600.71094	-481.73743	1180.60815	-446.79221	-215.93590	1159.71033	-458.92731	-296.24686	1053.27368	-344.80368	-127.85144	926.28406	-598.47156	-410.96100	934.54395	-500.58194	-307.59247	978.57056	-816.08911	-70.07587	516.03229	-542.10901	-469.24539	492.84848	-588.27692	-52.31216	104.62051	-571.45319	-419.98846	81.27691	-656.22314	
727	7.260	-181.02089	1678.28442	-576.38745	-394.89825	1670.00342	-487.52396							-106.99561	1502.97034	-669.74377	-457.73773	1450.27515	-531.54706	-274.23599	1303.33716	-555.15247	-347.10248	1522.21716	-727.30261	-43.21915	1231.30322	-605.83173	-482.00681	1180.75342	-450.42328	-215.80667	1159.74707	-463.12192	-295.67737	1053.51074	-348.84851	-128.11589	927.03119	-603.26306	-410.38071	934.33759	-504.27411	-308.77426	978.73627	-819.82623	-69.56255	516.58691	-546.62042	-467.90808	490.85791	-591.48895	-53.48675	105.52857	-587.18793	-420.01172	81.28602	-656.23120	
728	7.270	-181.51793	1678.38123	-582.50177	-395.36237	1670.55249	-493.06454							-107.56927	1502.95715	-675.01044	-457.76834	1450.39465	-535.51526	-275.04196	1303.61121	-559.41028	-347.96204	1521.98328	-732.17133	-44.40498	1231.40967	-610.08942	-482.41000	1181.06824	-454.62897	-217.52419	1158.61560	-471.99124	-295.89929	1053.06348	-352.99780	-128.68243	926.11829	-605.97906	-410.34525	934.81659	-507.47699	-310.59528	977.58978	-823.36145	-69.58427	516.29224	-551.16290	-466.42490	490.22388	-594.67468	-53.60427	107.01776	-603.93848	-420.24704	81.09819	-656.29926	
